# xmcd CD database file
#
# Track frame offsets:
#	150
#	14430
#	50225
#	79597
#	118196
#	142482
#	179154
#	200231
#	243563
#	287435
#
# Disc length: 4377 seconds
#
# Revision: 0
# Processed by: cddbd v1.5.2PL0 Copyright (c) Steve Scherf et al.
# Submitted via: CDex 1.79
#
DISCID=a411170a
DTITLE=Various Artist - Festival de Salsa Mundo CD2
DYEAR=2008
DGENRE=Salsa
TTITLE0=Anacaona - Cheo Feliciano
TTITLE1=El Aguacero - El Gran Combo
TTITLE2=Cali Pachanguero - Grupo Niche
TTITLE3=Medley - Ismael Miranda
TTITLE4=Ya para que - Camaguey
TTITLE5=Esos Ojitos negros - El Gran Combo
TTITLE6=Detalles - Oscar D' Leon
TTITLE7=Tu con el - Frankie Ruiz
TTITLE8=El Escapulario - Roberto Roeno
TTITLE9=Mi Gente - Hector Lavoe
EXTD=YEAR: 2008
EXTT0=
EXTT1=
EXTT2=
EXTT3=
EXTT4=
EXTT5=
EXTT6=
EXTT7=
EXTT8=
EXTT9=
PLAYORDER=
